<svg xmlns="http://www.w3.org/2000/svg" width="47.851" height="41.326" viewBox="0 0 47.851 41.326">
    <path d="M45.677 22.838a1.027 1.027 0 0 0-1.087 1.087v14.14a1.027 1.027 0 0 1-1.087 1.087H4.351a1.027 1.027 0 0 1-1.087-1.087V23.926a1.087 1.087 0 0 0-2.175 0v14.139a3.2 3.2 0 0 0 3.263 3.263h39.15a3.2 3.2 0 0 0 3.263-3.263V23.926a1.027 1.027 0 0 0-1.088-1.088z" data-name="Path 8900"/>
    <path d="M44.589 7.613H3.263A3.2 3.2 0 0 0 0 10.876v6.96a3.265 3.265 0 0 0 2.5 3.154l17.074 3.806v3.48a1.027 1.027 0 0 0 1.087 1.087h6.525a1.027 1.027 0 0 0 1.087-1.087v-3.48l17.074-3.806a3.265 3.265 0 0 0 2.5-3.154v-6.96a3.2 3.2 0 0 0-3.258-3.263zM26.1 27.188h-4.35v-4.35h4.35zm19.575-9.353a1.059 1.059 0 0 1-.87 1.088l-16.53 3.7v-.87a1.027 1.027 0 0 0-1.087-1.088h-6.525a1.027 1.027 0 0 0-1.087 1.088v.87l-16.53-3.7a1.059 1.059 0 0 1-.87-1.088v-6.96a1.027 1.027 0 0 1 1.087-1.088h41.326a1.027 1.027 0 0 1 1.087 1.088z" data-name="Path 8901"/>
    <path d="M29.363 0H18.488a3.2 3.2 0 0 0-3.263 3.263V4.35a1.087 1.087 0 1 0 2.175 0V3.263a1.027 1.027 0 0 1 1.087-1.087h10.875a1.027 1.027 0 0 1 1.088 1.087V4.35a1.087 1.087 0 1 0 2.175 0V3.263A3.2 3.2 0 0 0 29.363 0z" data-name="Path 8902"/>
</svg>
