<svg xmlns="http://www.w3.org/2000/svg" width="51.567" height="51.542" viewBox="0 0 51.567 51.542">
    <g data-name="Group 25411">
        <path d="M49.2 46.856H2.344a2.344 2.344 0 1 0 0 4.687H49.2a2.344 2.344 0 0 0 0-4.687z" data-name="Path 8807"/>
        <path d="M5.272 40.763a2.344 2.344 0 0 0 0 4.688h41a2.344 2.344 0 0 0 0-4.688h-.585V19.676h.585a1.171 1.171 0 0 0 0-2.341h-41a1.171 1.171 0 1 0 0 2.341h.587v21.086h-.587zM41 19.676v21.086h-7.028V19.676zm-11.715 0v21.086h-7.026V19.676zm-18.743 0h7.028v21.086h-7.028z" data-name="Path 8808"/>
        <path d="M2.344 15.228h46.88a2.344 2.344 0 0 0 .76-4.561L26.735.206a2.348 2.348 0 0 0-1.922 0L1.382 10.749a2.343 2.343 0 0 0 .961 4.48z" data-name="Path 8809"/>
    </g>
</svg>
