<svg xmlns="http://www.w3.org/2000/svg" width="18.156" height="19.553" viewBox="0 0 18.156 19.553">
    <path d="M17.741 3.208a1.342 1.342 0 0 0-.982-.415h-1.4V1.746A1.681 1.681 0 0 0 14.85.513 1.681 1.681 0 0 0 13.617 0h-.7a1.681 1.681 0 0 0-1.233.513 1.681 1.681 0 0 0-.513 1.233v1.047h-4.19V1.746A1.681 1.681 0 0 0 6.47.513 1.681 1.681 0 0 0 5.237 0h-.7a1.681 1.681 0 0 0-1.233.513 1.681 1.681 0 0 0-.513 1.233v1.047h-1.4a1.342 1.342 0 0 0-.982.415 1.342 1.342 0 0 0-.415.982v13.966a1.416 1.416 0 0 0 1.4 1.4h15.365a1.416 1.416 0 0 0 1.4-1.4V4.19a1.343 1.343 0 0 0-.418-.982zM12.57 1.746a.336.336 0 0 1 .349-.349h.7a.336.336 0 0 1 .349.349v3.142a.336.336 0 0 1-.349.349h-.7a.336.336 0 0 1-.349-.349zm-8.38 0a.336.336 0 0 1 .349-.349h.7a.336.336 0 0 1 .349.349v3.142a.336.336 0 0 1-.349.349h-.7a.336.336 0 0 1-.349-.349zm12.569 16.41H1.397V6.983h15.362z" data-name="Path 8880"/>
</svg>
