<svg xmlns="http://www.w3.org/2000/svg" width="74" height="74" viewBox="0 0 74 74">
    <defs>
        <style>
            .cls-1{fill:#34c3bd}.cls-2{fill:#fff;stroke:#fff}
        </style>
    </defs>
    <g id="Group_25750" data-name="Group 25750" transform="translate(-271 -294)">
        <circle id="Ellipse_174" cx="37" cy="37" r="37" class="cls-1" data-name="Ellipse 174" transform="translate(271 294)"/>
        <g id="camera" transform="translate(291 272.2)">
            <g id="Group_25741" data-name="Group 25741" transform="translate(0 44.8)">
                <g id="Group_25740" data-name="Group 25740">
                    <path id="Path_8905" d="M33.184 49.009a3.69 3.69 0 0 0-2.708-1.142h-5.417V47.8a2.93 2.93 0 0 0-.881-2.121 2.985 2.985 0 0 0-2.121-.881h-9.789a3.008 3.008 0 0 0-3.034 3v.065H3.85a3.69 3.69 0 0 0-2.708 1.142A3.879 3.879 0 0 0 0 51.717v16.25a3.69 3.69 0 0 0 1.142 2.708 3.879 3.879 0 0 0 2.708 1.142h26.625a3.69 3.69 0 0 0 2.708-1.142 3.879 3.879 0 0 0 1.142-2.708v-16.25a3.691 3.691 0 0 0-1.141-2.708zm-.555 18.957H32.6a2.117 2.117 0 0 1-2.121 2.121H3.85a2.117 2.117 0 0 1-2.121-2.121V51.717A2.117 2.117 0 0 1 3.85 49.6h6.3a.877.877 0 0 0 .881-.881v-.946A1.228 1.228 0 0 1 12.3 46.5h9.756a1.228 1.228 0 0 1 1.273 1.273v.946a.877.877 0 0 0 .881.881h6.3a2.117 2.117 0 0 1 2.121 2.121z" class="cls-2" data-name="Path 8905" transform="translate(0 -44.8)"/>
                    <path id="Path_8906" d="M120.027 130.8a8.021 8.021 0 1 0 5.677 2.349 8.041 8.041 0 0 0-5.677-2.349zm4.438 12.5a6.3 6.3 0 0 1-8.875 0 6.238 6.238 0 0 1-1.827-4.438 6.376 6.376 0 0 1 1.827-4.438 6.238 6.238 0 0 1 4.438-1.827 6.376 6.376 0 0 1 4.438 1.827 6.238 6.238 0 0 1 1.827 4.438 6.105 6.105 0 0 1-1.829 4.438z" class="cls-2" data-name="Path 8906" transform="translate(-102.864 -123.785)"/>
                    <circle id="Ellipse_173" cx="1.599" cy="1.599" r="1.599" class="cls-2" data-name="Ellipse 173" transform="translate(27.18 6.983)"/>
                </g>
            </g>
        </g>
    </g>
</svg>
