<svg xmlns="http://www.w3.org/2000/svg" width="48.814" height="41.305" viewBox="0 0 48.814 41.305">
    <g data-name="Group 25409">
        <path d="M37.549 37.55a3.756 3.756 0 1 0 1.1-2.655 3.618 3.618 0 0 0-1.1 2.655z" data-name="Path 8804"/>
        <path d="M48.257 4.312a1.8 1.8 0 0 0-1.32-.558H11.7q-.03-.205-.132-.748t-.161-.866a5.175 5.175 0 0 0-.22-.777 2.339 2.339 0 0 0-.381-.719 1.872 1.872 0 0 0-.586-.455 1.79 1.79 0 0 0-.836-.19H1.878a1.806 1.806 0 0 0-1.32.557 1.842 1.842 0 0 0 0 2.64 1.805 1.805 0 0 0 1.32.557h5.984l5.192 24.144q-.058.117-.6 1.115t-.867 1.745a3.221 3.221 0 0 0-.323 1.159 1.9 1.9 0 0 0 1.878 1.878h30.039a1.878 1.878 0 0 0 0-3.755H16.193a5.663 5.663 0 0 0 .7-1.877 3.17 3.17 0 0 0-.073-.646q-.074-.351-.176-.778t-.132-.63l30.627-3.579a1.821 1.821 0 0 0 1.2-.631 1.849 1.849 0 0 0 .469-1.247V5.633a1.806 1.806 0 0 0-.551-1.321z" data-name="Path 8805"/>
        <path d="M11.265 37.55a3.755 3.755 0 1 0 1.1-2.655 3.615 3.615 0 0 0-1.1 2.655z" data-name="Path 8806"/>
    </g>
</svg>
