<svg xmlns="http://www.w3.org/2000/svg" width="21.669" height="24.468" viewBox="0 0 21.669 24.468">
    <g id="prefix__csv" transform="translate(-31.36)">
        <path id="prefix__Path_8908" d="M51.658 8.752h-.588V5.917a.424.424 0 0 0-.005-.054.47.47 0 0 0-.114-.311L46.234.164a.466.466 0 0 0-.1-.08L46.1.062a.5.5 0 0 0-.095-.04l-.023-.008a.482.482 0 0 0-.11-.014H34.278a.96.96 0 0 0-.959.96v7.792h-.587a1.371 1.371 0 0 0-1.371 1.371v7.132a1.372 1.372 0 0 0 1.371 1.372h.587v4.882a.96.96 0 0 0 .959.959h15.833a.961.961 0 0 0 .96-.959v-4.883h.587a1.372 1.372 0 0 0 1.371-1.371v-7.132a1.371 1.371 0 0 0-1.371-1.371zM34.278.96h11.115v4.909a.48.48 0 0 0 .48.48h4.238v2.4H34.278zM41.5 13.976c-1.191-.415-1.966-1.073-1.966-2.115 0-1.223 1.02-2.158 2.71-2.158a4.381 4.381 0 0 1 1.828.362l-.361 1.308a3.4 3.4 0 0 0-1.5-.341c-.7 0-1.042.319-1.042.691 0 .457.4.659 1.329 1.01 1.265.468 1.86 1.126 1.86 2.136 0 1.2-.925 2.222-2.891 2.222a4.694 4.694 0 0 1-2.03-.436l.329-1.339a4.128 4.128 0 0 0 1.8.447c.744 0 1.137-.308 1.137-.776-.003-.448-.341-.703-1.203-1.011zm-8.441-.468A3.652 3.652 0 0 1 36.972 9.7a4.223 4.223 0 0 1 1.765.319l-.33 1.286a3.511 3.511 0 0 0-1.361-.265 2.154 2.154 0 0 0-2.285 2.37 2.139 2.139 0 0 0 2.3 2.338 4.045 4.045 0 0 0 1.35-.234l.245 1.265a4.611 4.611 0 0 1-1.839.309 3.408 3.408 0 0 1-3.756-3.58zm17.05 9.74H34.278v-4.622h15.833zm-1.072-6.265h-1.89l-2.3-7.164h1.776l.871 3.03c.245.85.468 1.668.638 2.561h.032c.181-.861.4-1.711.648-2.53l.918-3.06h1.723z" data-name="Path 8908" style="fill:#ffffff"/>
    </g>
</svg>
