<svg xmlns="http://www.w3.org/2000/svg" id="facebook" width="24.184" height="24.184" viewBox="0 0 24.184 24.184">
    <defs>
        <style>
            .cls-1{fill:#fff}
        </style>
    </defs>
    <path id="Path_1534" d="M291.159 508.668q-.151.025-.3.045.148-.02.3-.045zm0 0" class="cls-1" data-name="Path 1534" transform="translate(-277.117 -484.642)"/>
    <path id="Path_1535" d="M299.484 507.793l-.145.025zm0 0" class="cls-1" data-name="Path 1535" transform="translate(-285.201 -483.808)"/>
    <path id="Path_1536" d="M277.965 510.34q-.177.02-.356.035.179-.015.356-.035zm0 0" class="cls-1" data-name="Path 1536" transform="translate(-264.497 -486.235)"/>
    <path id="Path_1537" d="M286.616 509.738l-.17.021zm0 0" class="cls-1" data-name="Path 1537" transform="translate(-272.916 -485.661)"/>
    <path id="Path_1538" d="M306.792 506.41l-.128.027zm0 0" class="cls-1" data-name="Path 1538" transform="translate(-292.179 -482.49)"/>
    <path id="Path_1539" d="M324.587 502.113l-.1.029zm0 0" class="cls-1" data-name="Path 1539" transform="translate(-309.158 -478.396)"/>
    <path id="Path_1540" d="M319.171 503.543l-.112.029zm0 0" class="cls-1" data-name="Path 1540" transform="translate(-303.989 -479.759)"/>
    <path id="Path_1541" d="M312.186 505.254l-.119.027zm0 0" class="cls-1" data-name="Path 1541" transform="translate(-297.327 -481.389)"/>
    <path id="Path_1542" d="M273.671 511.09l-.191.014zm0 0" class="cls-1" data-name="Path 1542" transform="translate(-260.563 -486.949)"/>
    <path id="Path_1543" d="M24.184 12.092a12.092 12.092 0 1 0-12.092 12.092h.213v-9.416h-2.6V11.74h2.6V9.512a3.637 3.637 0 0 1 3.882-3.99 21.385 21.385 0 0 1 2.329.119v2.7h-1.59c-1.254 0-1.5.6-1.5 1.47v1.929h3l-.391 3.028H15.43v8.949a12.1 12.1 0 0 0 8.754-11.625zm0 0" class="cls-1" data-name="Path 1543"/>
    <path id="Path_1544" d="M265.27 511.43q-.189.012-.379.019.19-.007.379-.019zm0 0" class="cls-1" data-name="Path 1544" transform="translate(-252.379 -487.273)"/>
    <path id="Path_1545" d="M260.7 511.836l-.2.005zm0 0" class="cls-1" data-name="Path 1545" transform="translate(-248.199 -487.66)"/>
</svg>
