<svg xmlns="http://www.w3.org/2000/svg" id="prefix__facebook-logo" width="24.815" height="45.899" viewBox="0 0 24.815 45.899">
    <path id="prefix__Path_11" d="M45.958.01L40.006 0C33.319 0 29 4.434 29 11.3v5.2h-5.987a.936.936 0 00-.936.936v7.546a.936.936 0 00.936.936H29v19.045a.936.936 0 00.936.936h7.808a.936.936 0 00.936-.936V25.922h7a.936.936 0 00.936-.936V17.44a.937.937 0 00-.936-.936h-7v-4.415c0-2.122.506-3.2 3.27-3.2h4.01a.936.936 0 00.935-.936V.945a.936.936 0 00-.937-.935z" data-name="Path 11" transform="translate(-22.077)" style="fill:#fff"/>
</svg>
