<svg xmlns="http://www.w3.org/2000/svg" width="26.019" height="31.141" viewBox="0 0 26.019 31.141">
  <g id="filter" transform="translate(-15.604 6.488)">
    <path id="Path_8915" data-name="Path 8915" d="M42.483,32.712a1.18,1.18,0,0,1-1.18-1.18V5.18a1.18,1.18,0,1,1,2.36,0V31.532A1.18,1.18,0,0,1,42.483,32.712Z" transform="translate(-22.723 -9.274)" fill="none"/>
    <path id="Path_8916" data-name="Path 8916" d="M40.715,31.175A1.413,1.413,0,0,1,39.3,29.764V3.412a1.412,1.412,0,0,1,2.823,0V29.764A1.413,1.413,0,0,1,40.715,31.175Zm0-28.712a.95.95,0,0,0-.948.948V29.764a.948.948,0,1,0,1.9,0V3.412A.95.95,0,0,0,40.715,2.463Z" transform="translate(-20.955 -7.505)"/>
    <path id="Path_8917" data-name="Path 8917" d="M48.162,121.491a.232.232,0,0,1-.232-.232v-1.5a.232.232,0,1,1,.463,0v1.5A.232.232,0,0,1,48.162,121.491Z" transform="translate(-28.583 -111.428)"/>
    <circle id="Ellipse_181" data-name="Ellipse 181" cx="2.934" cy="2.934" r="2.934" transform="translate(15.605 -2.34) rotate(-45)" fill="#34c3bd"/>
    <path id="Path_8919" data-name="Path 8919" d="M195.6,32.712a1.18,1.18,0,0,1-1.18-1.18V5.18a1.18,1.18,0,1,1,2.36,0V31.532A1.18,1.18,0,0,1,195.6,32.712Z" transform="translate(-158.11 -9.274)" fill="none"/>
    <path id="Path_8920" data-name="Path 8920" d="M193.828,31.175a1.413,1.413,0,0,1-1.412-1.412V3.412a1.411,1.411,0,1,1,2.823,0V29.764A1.413,1.413,0,0,1,193.828,31.175Zm0-28.712a.95.95,0,0,0-.948.948V29.764a.948.948,0,1,0,1.9,0V3.412A.949.949,0,0,0,193.828,2.463Z" transform="translate(-156.341 -7.505)"/>
    <circle id="Ellipse_182" data-name="Ellipse 182" cx="2.934" cy="2.934" r="2.934" transform="translate(33.327 20.505) rotate(-45)" fill="#34c3bd"/>
    <path id="Path_8923" data-name="Path 8923" d="M119.04,32.712a1.18,1.18,0,0,1-1.18-1.18V5.18a1.18,1.18,0,0,1,2.36,0V31.532A1.18,1.18,0,0,1,119.04,32.712Z" transform="translate(-90.417 -9.274)" fill="none"/>
    <path id="Path_8924" data-name="Path 8924" d="M117.272,31.175a1.413,1.413,0,0,1-1.412-1.412V3.412a1.412,1.412,0,0,1,2.823,0V29.764A1.413,1.413,0,0,1,117.272,31.175Zm0-28.712a.95.95,0,0,0-.948.948V29.764a.948.948,0,1,0,1.9,0V3.412A.95.95,0,0,0,117.272,2.463Z" transform="translate(-88.648 -7.505)"/>
    <circle id="Ellipse_183" data-name="Ellipse 183" cx="2.934" cy="2.934" r="2.934" transform="translate(25.683 5.962)" fill="#34c3bd"/>
    <path id="Path_8925" data-name="Path 8925" d="M180.383,205.652a3.165,3.165,0,1,1,3.165-3.165A3.169,3.169,0,0,1,180.383,205.652Zm0-5.867a2.7,2.7,0,1,0,2.7,2.7A2.705,2.705,0,0,0,180.383,199.785Z" transform="translate(-142.903 -181.982)"/>
    <g id="Group_25816" data-name="Group 25816" transform="translate(16.589 -5.505)">
      <path id="Path_8929" data-name="Path 8929" d="M103.826,105.374a3.165,3.165,0,1,1,3.165-3.165A3.169,3.169,0,0,1,103.826,105.374Zm0-5.867a2.7,2.7,0,1,0,2.7,2.7A2.705,2.705,0,0,0,103.826,99.507Z" transform="translate(-91.798 -87.809)"/>
      <path id="Path_8930" data-name="Path 8930" d="M27.269,8.33a3.165,3.165,0,1,1,3.165-3.165A3.169,3.169,0,0,1,27.269,8.33Zm0-5.867a2.7,2.7,0,1,0,2.7,2.7A2.705,2.705,0,0,0,27.269,2.463Z" transform="translate(-24.104 -2)"/>
    </g>
  </g>
</svg>
