<svg xmlns="http://www.w3.org/2000/svg" id="prefix__search" width="42.285" height="42.284" viewBox="0 0 42.285 42.284">
    <path id="prefix__Path_3" d="M9.371 152.4L7.9 157.9l-5.38.114a21.179 21.179 0 01-.156-19.742l4.789.878 2.1 4.761a12.618 12.618 0 00.119 8.5z" data-name="Path 3" transform="translate(0 -126.849)" style="fill:#fbbb00"/>
    <path id="prefix__Path_4" d="M281.936 208.176a21.134 21.134 0 01-7.537 20.437l-6.032-.308-.854-5.33a12.6 12.6 0 005.422-6.434h-11.307v-8.364h20.308z" data-name="Path 4" transform="translate(-240.021 -190.983)" style="fill:#518ef8"/>
    <path id="prefix__Path_5" d="M62.366 321.484a21.149 21.149 0 01-31.859-6.468l6.852-5.608a12.574 12.574 0 0018.12 6.438z" data-name="Path 5" transform="translate(-27.989 -283.856)" style="fill:#28b446"/>
    <path id="prefix__Path_6" d="M60.9 4.867l-6.849 5.607a12.573 12.573 0 00-18.536 6.583l-6.888-5.639A21.147 21.147 0 0160.9 4.867z" data-name="Path 6" transform="translate(-26.26)" style="fill:#f7523c"/>
</svg>
