<svg xmlns="http://www.w3.org/2000/svg" width="21.205" height="21.205" viewBox="0 0 21.205 21.205">
    <defs>
        <style>
            .cls-1{fill:#fff}
        </style>
    </defs>
    <g id="Group_25759" data-name="Group 25759" transform="translate(-1274.813 -2520)">
        <path id="Path_1546" d="M4.7 145.356l-.738 2.755-2.7.057a10.621 10.621 0 0 1-.078-9.9l2.4.44L4.64 141.1a6.328 6.328 0 0 0 .059 4.26z" class="cls-1" data-name="Path 1546" transform="translate(1274.813 2387.458)"/>
        <path id="Path_1547" d="M271.812 208.176a10.6 10.6 0 0 1-3.78 10.249l-3.025-.154-.428-2.673a6.319 6.319 0 0 0 2.719-3.227h-5.669v-4.194h10.184z" class="cls-1" data-name="Path 1547" transform="translate(1024.02 2320.446)"/>
        <path id="Path_1548" d="M46.485 315.465a10.606 10.606 0 0 1-15.976-3.244l3.436-2.813a6.306 6.306 0 0 0 9.087 3.229z" class="cls-1" data-name="Path 1548" transform="translate(1245.567 2223.406)"/>
        <path id="Path_1549" d="M44.808 2.441l-3.434 2.812a6.3 6.3 0 0 0-9.3 3.3l-3.449-2.826a10.6 10.6 0 0 1 16.183-3.286z" class="cls-1" data-name="Path 1549" transform="translate(1247.374 2520)"/>
    </g>
</svg>
