<svg xmlns="http://www.w3.org/2000/svg" width="42.495" height="39.096" viewBox="0 0 42.495 39.096">
    <defs>
        <style>
            .cls-1{fill:#34c3bd}
        </style>
    </defs>
    <path id="heart_1_" d="M21.121 8.906A11.114 11.114 0 0 1 31.311 2c6.139 0 10.56 5.252 11.116 11.51a11.455 11.455 0 0 1-.36 4.351 19.236 19.236 0 0 1-5.867 9.778L21.121 41.1 6.291 27.638a19.233 19.233 0 0 1-5.863-9.777 11.455 11.455 0 0 1-.36-4.351C.624 7.252 5.045 2 11.184 2a10.77 10.77 0 0 1 9.937 6.906z" class="cls-1" data-name="heart(1)" transform="translate(0 -2)"/>
</svg>
