<svg xmlns="http://www.w3.org/2000/svg" width="48.923" height="46.5" viewBox="0 0 48.923 46.5">
    <defs>
        <style>
            .cls-1{fill:#fff}
        </style>
    </defs>
    <g id="empire-state-building" transform="translate(0 -12.675)">
        <g id="Group_25717" data-name="Group 25717" transform="translate(0 12.676)">
            <path id="Path_8899" d="M48.1 33.335l-4.133-3.766V17.082a1.439 1.439 0 0 0-1.439-1.439h-9.947a1.439 1.439 0 0 0-1.439 1.439v.8l-4.991-4.548a2.5 2.5 0 0 0-3.379 0l-21.95 20a2.509 2.509 0 0 0 1.69 4.366h3.505v20.037a1.439 1.439 0 0 0 1.439 1.439h12.031a1.439 1.439 0 0 0 1.439-1.439V45.57H28v12.167a1.439 1.439 0 0 0 1.439 1.439h12.027a1.439 1.439 0 0 0 1.434-1.439V37.7h3.506a2.509 2.509 0 0 0 1.69-4.363zm-6.634 1.485a1.439 1.439 0 0 0-1.439 1.439V56.3h-9.153V44.131a1.439 1.439 0 0 0-1.439-1.439h-9.948a1.439 1.439 0 0 0-1.439 1.439V56.3H8.895V36.259a1.439 1.439 0 0 0-1.439-1.439H3.463l21-19.133 7.149 6.513a1.439 1.439 0 0 0 2.408-1.063v-2.616h7.071V30.2a1.439 1.439 0 0 0 .47 1.063l3.9 3.553z" class="cls-1" data-name="Path 8899" transform="translate(0 -12.676)"/>
        </g>
    </g>
</svg>
