<svg xmlns="http://www.w3.org/2000/svg" width="83.499" height="83.499" viewBox="0 0 83.499 83.499">
    <defs>
        <style>
            .cls-1{fill:#34c3bd}.cls-2{fill:none;stroke:#999;stroke-miterlimit:10;stroke-width:3.91px}
        </style>
    </defs>
    <g id="Group_25365" data-name="Group 25365" transform="translate(-126.107 -807.753)">
        <g id="Group_17" data-name="Group 17" transform="translate(150.344 824.964)">
            <g id="Group_16" data-name="Group 16">
                <path id="Path_5" d="M157.826 869.668a5.5 5.5 0 0 1-.889-.842c-5.341-8.06-10.49-16.235-14.226-25.2a21.3 21.3 0 0 1-1.945-8.008 17.388 17.388 0 0 1 14.823-17 8.872 8.872 0 0 0 .87-.214h3.419a34.764 34.764 0 0 1 4.991 1.424c6.855 3.084 10.414 8.511 10.616 15.98.095 3.55-1.381 6.8-2.829 9.981a166.661 166.661 0 0 1-13.23 22.918 7.359 7.359 0 0 1-.916.96zm.281-3.615c4.6-7.08 8.943-13.975 12.205-21.462a27.585 27.585 0 0 0 2.456-7.632c1.089-9.6-7.915-17.5-17.389-15.717-7.79 1.47-14.7 10.029-10.941 19.746a110.121 110.121 0 0 0 8.529 16.791c1.633 2.721 3.349 5.397 5.14 8.274z" class="cls-1" data-name="Path 5" transform="translate(-140.765 -818.405)"/>
                <path id="Path_6" d="M154.858 822.775a9.612 9.612 0 1 1-9.692 9.441 9.617 9.617 0 0 1 9.692-9.441zm6.985 9.66a7.036 7.036 0 0 0-14.07-.167 7.036 7.036 0 1 0 14.07.167z" class="cls-1" data-name="Path 6" transform="translate(-137.445 -815.109)"/>
            </g>
        </g>
        <circle id="Ellipse_3" cx="39.795" cy="39.795" r="39.795" class="cls-2" data-name="Ellipse 3" transform="translate(128.062 809.708)"/>
    </g>
</svg>
