<svg xmlns="http://www.w3.org/2000/svg" width="83.499" height="83.499" viewBox="0 0 83.499 83.499">
    <defs>
        <style>
            .cls-1{fill:none;stroke:#999;stroke-miterlimit:10;stroke-width:3.91px}.cls-2{fill:#34c3bd}
        </style>
    </defs>
    <g id="Group_25754" data-name="Group 25754" transform="translate(-800.545 -1520.545)">
        <circle id="Ellipse_3" cx="39.795" cy="39.795" r="39.795" class="cls-1" data-name="Ellipse 3" transform="translate(802.5 1522.5)"/>
        <g id="calendar_2_" data-name="calendar(2)" transform="translate(821.159 1542.159)">
            <g id="Group_25367" data-name="Group 25367">
                <g id="Group_25366" data-name="Group 25366">
                    <path id="Path_8802" d="M36.588 3.238h-1.943V0h-3.238v3.238h-21.37V0H6.8v3.238H4.857A4.862 4.862 0 0 0 0 8.095v28.493a4.862 4.862 0 0 0 4.857 4.857h31.731a4.862 4.862 0 0 0 4.857-4.857V8.095a4.862 4.862 0 0 0-4.857-4.857zm1.619 33.35a1.621 1.621 0 0 1-1.619 1.619H4.857a1.621 1.621 0 0 1-1.619-1.619v-21.37h34.969zm0-24.608H3.238V8.095a1.621 1.621 0 0 1 1.619-1.619H6.8v3.238h3.238V6.476h21.37v3.238h3.238V6.476h1.943a1.621 1.621 0 0 1 1.619 1.619z" class="cls-2" data-name="Path 8802"/>
                </g>
            </g>
            <g id="Group_25369" data-name="Group 25369" transform="translate(5.782 19.366)">
                <g id="Group_25368" data-name="Group 25368">
                    <path id="Rectangle_1704" d="M0 0h3.623v2.717H0z" class="cls-2" data-name="Rectangle 1704"/>
                </g>
            </g>
            <g id="Group_25371" data-name="Group 25371" transform="translate(13.027 19.366)">
                <g id="Group_25370" data-name="Group 25370">
                    <path id="Rectangle_1705" d="M0 0h2.717v2.717H0z" class="cls-2" data-name="Rectangle 1705"/>
                </g>
            </g>
            <g id="Group_25373" data-name="Group 25373" transform="translate(19.366 19.366)">
                <g id="Group_25372" data-name="Group 25372">
                    <path id="Rectangle_1706" d="M0 0h2.717v2.717H0z" class="cls-2" data-name="Rectangle 1706"/>
                </g>
            </g>
            <g id="Group_25375" data-name="Group 25375" transform="translate(25.705 19.366)">
                <g id="Group_25374" data-name="Group 25374">
                    <path id="Rectangle_1707" d="M0 0h2.717v2.717H0z" class="cls-2" data-name="Rectangle 1707"/>
                </g>
            </g>
            <g id="Group_25377" data-name="Group 25377" transform="translate(32.045 19.366)">
                <g id="Group_25376" data-name="Group 25376">
                    <path id="Rectangle_1708" d="M0 0h3.623v2.717H0z" class="cls-2" data-name="Rectangle 1708"/>
                </g>
            </g>
            <g id="Group_25379" data-name="Group 25379" transform="translate(5.782 25.705)">
                <g id="Group_25378" data-name="Group 25378">
                    <path id="Rectangle_1709" d="M0 0h3.623v2.717H0z" class="cls-2" data-name="Rectangle 1709"/>
                </g>
            </g>
            <g id="Group_25381" data-name="Group 25381" transform="translate(13.027 25.705)">
                <g id="Group_25380" data-name="Group 25380">
                    <path id="Rectangle_1710" d="M0 0h2.717v2.717H0z" class="cls-2" data-name="Rectangle 1710"/>
                </g>
            </g>
            <g id="Group_25383" data-name="Group 25383" transform="translate(19.366 25.705)">
                <g id="Group_25382" data-name="Group 25382">
                    <path id="Rectangle_1711" d="M0 0h2.717v2.717H0z" class="cls-2" data-name="Rectangle 1711"/>
                </g>
            </g>
            <g id="Group_25385" data-name="Group 25385" transform="translate(25.705 25.705)">
                <g id="Group_25384" data-name="Group 25384">
                    <path id="Rectangle_1712" d="M0 0h2.717v2.717H0z" class="cls-2" data-name="Rectangle 1712"/>
                </g>
            </g>
            <g id="Group_25387" data-name="Group 25387" transform="translate(5.782 31.139)">
                <g id="Group_25386" data-name="Group 25386">
                    <path id="Rectangle_1713" d="M0 0h3.623v3.623H0z" class="cls-2" data-name="Rectangle 1713"/>
                </g>
            </g>
            <g id="Group_25389" data-name="Group 25389" transform="translate(13.027 31.139)">
                <g id="Group_25388" data-name="Group 25388">
                    <path id="Rectangle_1714" d="M0 0h2.717v3.623H0z" class="cls-2" data-name="Rectangle 1714"/>
                </g>
            </g>
            <g id="Group_25391" data-name="Group 25391" transform="translate(19.366 31.139)">
                <g id="Group_25390" data-name="Group 25390">
                    <path id="Rectangle_1715" d="M0 0h2.717v3.623H0z" class="cls-2" data-name="Rectangle 1715"/>
                </g>
            </g>
            <g id="Group_25393" data-name="Group 25393" transform="translate(25.705 31.139)">
                <g id="Group_25392" data-name="Group 25392">
                    <path id="Rectangle_1716" d="M0 0h2.717v3.623H0z" class="cls-2" data-name="Rectangle 1716"/>
                </g>
            </g>
            <g id="Group_25395" data-name="Group 25395" transform="translate(32.045 25.705)">
                <g id="Group_25394" data-name="Group 25394">
                    <path id="Rectangle_1717" d="M0 0h3.623v2.717H0z" class="cls-2" data-name="Rectangle 1717"/>
                </g>
            </g>
        </g>
    </g>
</svg>
