<svg xmlns="http://www.w3.org/2000/svg" width="42.89" height="42.89" viewBox="0 0 42.89 42.89">
    <defs>
        <style>
            .cls-1{fill:#34c3bd}
        </style>
    </defs>
    <path id="menu_1_" d="M21.445 0A21.445 21.445 0 1 0 42.89 21.445 21.47 21.47 0 0 0 21.445 0zm9.191 31.4H12.254a1.532 1.532 0 1 1 0-3.064h18.382a1.532 1.532 0 1 1 0 3.064zm0-8.425H12.254a1.532 1.532 0 1 1 0-3.064h18.382a1.532 1.532 0 0 1 0 3.064zm0-8.425H12.254a1.532 1.532 0 1 1 0-3.064h18.382a1.532 1.532 0 0 1 0 3.064z" class="cls-1" data-name="menu (1)"/>
</svg>
