<svg xmlns="http://www.w3.org/2000/svg" width="87.234" height="87.234" viewBox="0 0 87.234 87.234">
    <defs>
        <style>
            .cls-1{fill:#fff}.cls-2,.cls-3{fill:#34c3bd}.cls-3{font-size:14px;font-family:SegoeUIBlack,Segoe UI}
        </style>
    </defs>
    <g id="Group_25693" data-name="Group 25693" transform="translate(-1218 -535)">
        <g id="Group_25454" data-name="Group 25454" transform="translate(1218 535)">
            <path id="Path_8828" d="M51.069 11.424l5.033-1.9a1.7 1.7 0 0 1 1.662.263l4.2 3.364a1.7 1.7 0 0 0 1.141.371l5.375-.254a1.7 1.7 0 0 1 1.5.764l2.954 4.5a1.7 1.7 0 0 0 .971.705l5.19 1.42a1.7 1.7 0 0 1 1.189 1.189l1.42 5.19a1.7 1.7 0 0 0 .705.971l4.5 2.954a1.7 1.7 0 0 1 .764 1.5l-.254 5.375a1.7 1.7 0 0 0 .371 1.141l3.364 4.2a1.7 1.7 0 0 1 .263 1.662l-1.9 5.033a1.7 1.7 0 0 0 0 1.2l1.9 5.033a1.7 1.7 0 0 1-.263 1.662l-3.364 4.2a1.7 1.7 0 0 0-.371 1.141l.254 5.375a1.7 1.7 0 0 1-.764 1.5l-4.5 2.954a1.7 1.7 0 0 0-.705.971l-1.42 5.19a1.7 1.7 0 0 1-1.189 1.189L73.9 81.7a1.7 1.7 0 0 0-.971.705l-2.954 4.5a1.7 1.7 0 0 1-1.5.764l-5.375-.256a1.7 1.7 0 0 0-1.141.371l-4.2 3.364a1.7 1.7 0 0 1-1.662.263l-5.033-1.9a1.7 1.7 0 0 0-1.2 0l-5.033 1.9a1.7 1.7 0 0 1-1.662-.263l-4.2-3.364a1.7 1.7 0 0 0-1.141-.371l-5.375.254a1.7 1.7 0 0 1-1.5-.764l-2.954-4.5a1.7 1.7 0 0 0-.971-.705l-5.19-1.42a1.7 1.7 0 0 1-1.189-1.189l-1.42-5.19a1.7 1.7 0 0 0-.705-.971l-4.5-2.954a1.7 1.7 0 0 1-.764-1.5l.254-5.375a1.7 1.7 0 0 0-.371-1.141l-3.364-4.2a1.7 1.7 0 0 1-.255-1.658l1.9-5.033a1.7 1.7 0 0 0 0-1.2l-1.9-5.034a1.7 1.7 0 0 1 .263-1.662l3.364-4.2a1.7 1.7 0 0 0 .371-1.141l-.254-5.375a1.7 1.7 0 0 1 .764-1.5L18.53 28a1.7 1.7 0 0 0 .705-.971l1.42-5.19a1.7 1.7 0 0 1 1.189-1.189l5.19-1.42a1.7 1.7 0 0 0 .971-.705l2.954-4.5a1.7 1.7 0 0 1 1.5-.764l5.375.254a1.7 1.7 0 0 0 1.141-.371l4.2-3.364a1.7 1.7 0 0 1 1.662-.263l5.033 1.9a1.7 1.7 0 0 0 1.199.007z" class="cls-1" data-name="Path 8828" transform="translate(-6.578 -6.76)"/>
            <g id="recommended">
                <g id="Group_25446" data-name="Group 25446">
                    <g id="Group_25445" data-name="Group 25445">
                        <path id="Path_8824" d="M84.8 43.617l2.346-6.209a1.365 1.365 0 0 0-.212-1.337l-4.15-5.18.313-6.63a1.366 1.366 0 0 0-.614-1.206l-5.548-3.644-1.751-6.4a1.366 1.366 0 0 0-.957-.957l-6.4-1.751-3.648-5.551a1.368 1.368 0 0 0-1.206-.614l-6.63.313L51.163.3a1.366 1.366 0 0 0-1.337-.211l-6.21 2.346L37.408.089A1.365 1.365 0 0 0 36.071.3l-5.18 4.15-6.63-.313a1.363 1.363 0 0 0-1.206.614L19.41 10.3l-6.4 1.751a1.366 1.366 0 0 0-.957.957l-1.751 6.4-5.55 3.647a1.366 1.366 0 0 0-.614 1.206l.313 6.63L.3 36.071a1.366 1.366 0 0 0-.212 1.337l2.346 6.209-2.346 6.209A1.365 1.365 0 0 0 .3 51.163l4.15 5.18-.313 6.63a1.366 1.366 0 0 0 .614 1.206l5.549 3.645 1.751 6.4a1.366 1.366 0 0 0 .957.957l6.4 1.751 3.644 5.548a1.37 1.37 0 0 0 1.206.614l6.63-.313 5.18 4.15a1.365 1.365 0 0 0 1.337.212l6.212-2.343 6.209 2.346a1.366 1.366 0 0 0 1.337-.212l5.18-4.15 6.63.313a1.367 1.367 0 0 0 1.206-.614l3.644-5.548 6.4-1.751a1.366 1.366 0 0 0 .957-.957l1.751-6.4 5.548-3.644a1.366 1.366 0 0 0 .614-1.206l-.313-6.63 4.15-5.18a1.366 1.366 0 0 0 .212-1.337zm-2.738.483l2.253 5.963-3.986 4.975a1.365 1.365 0 0 0-.3.918l.3 6.368-5.329 3.5a1.366 1.366 0 0 0-.568.781l-1.682 6.149-6.15 1.682a1.367 1.367 0 0 0-.781.568l-3.5 5.328-6.368-.3a1.367 1.367 0 0 0-.918.3l-4.975 3.986-5.958-2.256a1.367 1.367 0 0 0-.966 0l-5.963 2.253-4.971-3.986a1.368 1.368 0 0 0-.918-.3l-6.368.3L21.41 75a1.366 1.366 0 0 0-.781-.568l-6.149-1.678-1.68-6.149a1.367 1.367 0 0 0-.568-.781l-5.332-3.5.3-6.368a1.365 1.365 0 0 0-.3-.918l-3.981-4.975L5.172 44.1a1.366 1.366 0 0 0 0-.966l-2.253-5.963L6.9 32.2a1.365 1.365 0 0 0 .3-.918l-.3-6.368 5.328-3.5a1.366 1.366 0 0 0 .568-.781l1.682-6.149 6.151-1.684a1.367 1.367 0 0 0 .781-.568l3.5-5.332 6.368.3a1.367 1.367 0 0 0 .918-.3l4.975-3.986 5.963 2.254a1.366 1.366 0 0 0 .966 0l5.963-2.254L55.038 6.9a1.365 1.365 0 0 0 .918.3l6.368-.3 3.5 5.328a1.366 1.366 0 0 0 .781.568l6.149 1.682 1.682 6.149a1.367 1.367 0 0 0 .568.781l5.328 3.5-.3 6.368a1.365 1.365 0 0 0 .3.918l3.986 4.975-2.254 5.963a1.367 1.367 0 0 0-.003.968z" class="cls-2" data-name="Path 8824"/>
                    </g>
                </g>
                <g id="Group_25448" data-name="Group 25448" transform="translate(64.85 17.53)">
                    <g id="Group_25447" data-name="Group 25447">
                        <path id="Path_8825" d="M385.055 105.392a36.025 36.025 0 0 0-2.142-2.142 1.366 1.366 0 1 0-1.847 2.012 34.086 34.086 0 0 1 1.977 1.977 1.366 1.366 0 0 0 2.013-1.847z" class="cls-2" data-name="Path 8825" transform="translate(-380.623 -102.89)"/>
                    </g>
                </g>
                <g id="Group_25450" data-name="Group 25450" transform="translate(8.697 8.725)">
                    <g id="Group_25449" data-name="Group 25449">
                        <path id="Path_8826" d="M104.639 56.649a34.88 34.88 0 0 0-45.428 51.862 1.366 1.366 0 0 0 2.09-1.759 32.149 32.149 0 0 1 41.87-47.8 1.366 1.366 0 0 0 1.468-2.3z" class="cls-2" data-name="Path 8826" transform="translate(-51.047 -51.212)"/>
                    </g>
                </g>
                <g id="Group_25452" data-name="Group 25452" transform="translate(20.661 24.25)">
                    <g id="Group_25451" data-name="Group 25451">
                        <path id="Path_8827" d="M173.614 142.965a1.366 1.366 0 1 0-2.3 1.468 32.149 32.149 0 0 1-47.8 41.87 1.366 1.366 0 0 0-1.759 2.09 34.741 34.741 0 0 0 22.416 8.164q.713 0 1.429-.029a34.883 34.883 0 0 0 28.016-53.563z" class="cls-2" data-name="Path 8827" transform="translate(-121.266 -142.332)"/>
                    </g>
                </g>
            </g>
        </g>
        <text id="Super_Cleaner" class="cls-3" data-name="Super Cleaner" transform="translate(1262 576)">
            <tspan x="-19.852" y="0">Super</tspan><tspan x="-25.768" y="15">Cleaner</tspan>
        </text>
    </g>
</svg>
