<svg xmlns="http://www.w3.org/2000/svg" width="19.458" height="18.609" viewBox="0 0 19.458 18.609">
    <path d="M10.668.584l2.195 4.447a1.048 1.048 0 0 0 .789.573l4.908.713a1.048 1.048 0 0 1 .581 1.787l-3.552 3.462a1.048 1.048 0 0 0-.3.927l.838 4.888a1.048 1.048 0 0 1-1.52 1.1l-4.389-2.307a1.049 1.049 0 0 0-.975 0l-4.391 2.312a1.048 1.048 0 0 1-1.52-1.1l.837-4.893a1.048 1.048 0 0 0-.3-.927L.317 8.104a1.048 1.048 0 0 1 .582-1.787l4.908-.713a1.048 1.048 0 0 0 .792-.573L8.789.584a1.047 1.047 0 0 1 1.879 0z"/>
</svg>
