<svg xmlns="http://www.w3.org/2000/svg" width="57.138" height="37.91" viewBox="0 0 57.138 37.91">
    <defs>
        <style>
            .cls-1{fill:#2c2c2c}
        </style>
    </defs>
    <g id="Group_25410" data-name="Group 25410" transform="translate(23297 -1422.545)">
        <path id="Union_39" d="M40 19.452V16H0V7h40V3.549a2 2 0 0 1 3.036-1.712l13.138 7.952a2 2 0 0 1 0 3.422l-13.139 7.952a1.982 1.982 0 0 1-1.035.292 2 2 0 0 1-2-2.003z" class="cls-1" data-name="Union 39" transform="translate(-23297 1421)"/>
        <path id="Union_40" d="M40 17.906v-3.451H0v-9h40V2A2 2 0 0 1 43.035.292l13.138 7.952a2 2 0 0 1 0 3.422l-13.138 7.951a1.982 1.982 0 0 1-1.035.292 2 2 0 0 1-2-2.003z" class="cls-1" data-name="Union 40" transform="rotate(180 -11619.932 730.227)"/>
    </g>
</svg>
