<svg xmlns="http://www.w3.org/2000/svg" width="24.946" height="24.946" viewBox="0 0 24.946 24.946">
    <path d="M24.946 12.473a12.473 12.473 0 1 0-20.9 9.188l-.012.01.4.341c.026.022.055.04.081.062.215.178.438.347.664.511.073.053.147.106.222.158q.363.25.745.475l.167.1c.278.158.562.308.853.444l.064.029a12.361 12.361 0 0 0 3.017.955l.083.015c.328.057.66.1 1 .132l.123.01c.335.028.673.045 1.016.045s.675-.018 1.008-.044l.127-.01q.5-.046.988-.13l.085-.015a12.36 12.36 0 0 0 2.974-.932l.1-.047q.42-.2.821-.425l.2-.115c.244-.144.484-.294.717-.454.084-.057.166-.117.249-.177.2-.143.395-.291.585-.446.042-.034.088-.064.129-.1l.415-.347-.012-.01a12.441 12.441 0 0 0 4.091-9.223zm-24.039 0a11.566 11.566 0 1 1 19.236 8.647 3.4 3.4 0 0 0-.405-.244l-3.84-1.92a1 1 0 0 1-.559-.9v-1.345c.089-.11.183-.234.28-.371a9.243 9.243 0 0 0 1.187-2.324 1.646 1.646 0 0 0 .946-1.492v-1.607a1.65 1.65 0 0 0-.4-1.075V7.726a3.658 3.658 0 0 0-.854-2.66 5.105 5.105 0 0 0-4.022-1.437 5.107 5.107 0 0 0-4.025 1.436 3.659 3.659 0 0 0-.851 2.66v2.117a1.653 1.653 0 0 0-.4 1.075v1.608a1.65 1.65 0 0 0 .6 1.275 8.523 8.523 0 0 0 1.4 2.9v1.313a1.012 1.012 0 0 1-.527.888l-3.581 1.958a3.278 3.278 0 0 0-.341.216 11.538 11.538 0 0 1-3.844-8.602z" data-name="user(4)"/>
</svg>
