<svg xmlns="http://www.w3.org/2000/svg" width="27.785" height="23.847" viewBox="0 0 27.785 23.847">
    <path d="M26.229 10.371h-.661V6.399a2.944 2.944 0 00-2.94-2.94h-.61l.006-1.476A1.984 1.984 0 0020.041 0H2.41A2.412 2.412 0 000 2.376v19.488a1.984 1.984 0 001.983 1.986h20.65a2.944 2.944 0 002.94-2.94v-3.98h.661a1.552 1.552 0 001.55-1.55v-3.459a1.56 1.56 0 00-1.555-1.55zm-23.819-9h17.63a.615.615 0 01.615.61l-.006 1.482H2.41a1.046 1.046 0 010-2.091zm21.79 19.53a1.576 1.576 0 01-1.573 1.573H1.977a.616.616 0 01-.615-.615V4.587a2.4 2.4 0 001.048.239h20.218A1.576 1.576 0 0124.2 6.399v3.972h-4.666a1.552 1.552 0 00-1.55 1.55v3.459a1.552 1.552 0 001.55 1.55H24.2zm2.211-5.522a.18.18 0 01-.182.182h-6.69a.18.18 0 01-.182-.182v-3.458a.184.184 0 01.182-.182h6.69a.184.184 0 01.182.182v3.459z" data-name="Path 8852"/>
</svg>
